<svg id="Layer_1" data-name="Layer 1" xmlns="http://www.w3.org/2000/svg" viewBox="0 0 260 51"><path d="M.81.82H9.5V20.26H32.32V.82H41V49.63H32.32V28.12H9.5V49.63H.81Z"/><path d="M49.28,25.43a28.24,28.24,0,0,1,1.93-10.65,24.13,24.13,0,0,1,5.34-8.17,23.52,23.52,0,0,1,8.14-5.2A28.42,28.42,0,0,1,75.06-.42,29.15,29.15,0,0,1,85.54,1.27a22.7,22.7,0,0,1,8.2,5.14,23.71,23.71,0,0,1,5.38,8.13,27.94,27.94,0,0,1,1.93,10.62,27.07,27.07,0,0,1-1.93,10.41,23.9,23.9,0,0,1-5.38,8.06,24.47,24.47,0,0,1-8.2,5.28,29,29,0,0,1-10.48,2A28.42,28.42,0,0,1,64.69,49a23.23,23.23,0,0,1-13.48-13.2A27,27,0,0,1,49.28,25.43Zm9.1-.55a20.87,20.87,0,0,0,1.21,7.24A16.91,16.91,0,0,0,63,37.84a15.76,15.76,0,0,0,5.27,3.79A16.55,16.55,0,0,0,75.13,43,16.72,16.72,0,0,0,82,41.63a15.62,15.62,0,0,0,5.31-3.79,17.09,17.09,0,0,0,3.42-5.72A21.11,21.11,0,0,0,92,24.88a19.1,19.1,0,0,0-1.2-6.82,16.92,16.92,0,0,0-3.42-5.55A15.6,15.6,0,0,0,82,8.78a17.21,17.21,0,0,0-6.89-1.34,17,17,0,0,0-6.86,1.34A15.74,15.74,0,0,0,63,12.51a16.73,16.73,0,0,0-3.41,5.55A18.89,18.89,0,0,0,58.38,24.88Z"/><path d="M109.32.82h11.52l23.64,36.26h.14V.82h8.69V49.63h-11L118.15,12.2H118V49.63h-8.69Z"/><path d="M161.58,25.43a28.24,28.24,0,0,1,1.93-10.65,24.13,24.13,0,0,1,5.34-8.17A23.52,23.52,0,0,1,177,1.41,28.46,28.46,0,0,1,187.36-.42a29.15,29.15,0,0,1,10.48,1.69,22.83,22.83,0,0,1,8.21,5.14,23.69,23.69,0,0,1,5.37,8.13,27.94,27.94,0,0,1,1.93,10.62,27.07,27.07,0,0,1-1.93,10.41,23.88,23.88,0,0,1-5.37,8.06,24.61,24.61,0,0,1-8.21,5.28,29,29,0,0,1-10.48,2A28.46,28.46,0,0,1,177,49a23.23,23.23,0,0,1-13.48-13.2A27,27,0,0,1,161.58,25.43Zm9.1-.55a20.87,20.87,0,0,0,1.21,7.24,16.91,16.91,0,0,0,3.41,5.72,15.76,15.76,0,0,0,5.27,3.79A16.55,16.55,0,0,0,187.43,43a16.8,16.8,0,0,0,6.9-1.38,15.68,15.68,0,0,0,5.3-3.79,17.09,17.09,0,0,0,3.42-5.72,21.11,21.11,0,0,0,1.2-7.24,19.1,19.1,0,0,0-1.2-6.82,16.92,16.92,0,0,0-3.42-5.55,15.66,15.66,0,0,0-5.3-3.73,17.3,17.3,0,0,0-6.9-1.34,17,17,0,0,0-6.86,1.34,15.74,15.74,0,0,0-5.27,3.73,16.73,16.73,0,0,0-3.41,5.55A18.89,18.89,0,0,0,170.68,24.88Z"/><path d="M221.63.82h17a34.39,34.39,0,0,1,6.8.66,17.18,17.18,0,0,1,5.82,2.24A11.75,11.75,0,0,1,255.27,8a13.78,13.78,0,0,1,1.52,6.83,13.55,13.55,0,0,1-2.94,8.89,12.52,12.52,0,0,1-8.37,4.34l13,21.58H248L236.65,29h-6.34V49.63h-8.68ZM237.07,21.5c1.24,0,2.48-.05,3.72-.17a11.15,11.15,0,0,0,3.41-.83,5.71,5.71,0,0,0,2.52-2,6.34,6.34,0,0,0,1-3.75,6,6,0,0,0-.89-3.45,5.54,5.54,0,0,0-2.35-2,10.69,10.69,0,0,0-3.2-.87,31,31,0,0,0-3.41-.2h-7.52V21.5Z"/></svg>